<svg width="60" height="60" viewBox="0 0 60 60" fill="none" xmlns="http://www.w3.org/2000/svg">
<rect width="60" height="60" rx="30" fill="#4A21EF"/>
<g clip-path="url(#clip0_370_6842)">
<path d="M36.75 17.8501C33.855 17.8501 31.5 20.2051 31.5 23.1001C31.5 25.7941 35.712 30.5656 36.192 31.1011C36.3345 31.2586 36.537 31.3501 36.75 31.3501C36.963 31.3501 37.1655 31.2586 37.308 31.1011C37.788 30.5656 42 25.7941 42 23.1001C42 20.2051 39.645 17.8501 36.75 17.8501ZM36.75 25.3501C35.508 25.3501 34.5 24.3421 34.5 23.1001C34.5 21.8581 35.508 20.8501 36.75 20.8501C37.992 20.8501 39 21.8581 39 23.1001C39 24.3421 37.992 25.3501 36.75 25.3501ZM18.471 26.6611C18.3319 26.7172 18.2128 26.8135 18.1288 26.9378C18.0449 27.0621 18 27.2086 18 27.3586V41.1001C18 41.3491 18.1245 41.5816 18.33 41.7211C18.456 41.8051 18.6015 41.8501 18.75 41.8501C18.8445 41.8501 18.939 41.8321 19.029 41.7961L25.5 39.2071V23.8501L18.471 26.6611Z" fill="white"/>
<path d="M38.424 32.1031C37.998 32.5771 37.3875 32.8501 36.75 32.8501C36.1125 32.8501 35.502 32.5771 35.076 32.1031C34.923 31.9336 34.7265 31.7101 34.5 31.4446V41.8501L41.529 39.0391C41.814 38.9266 42 38.6491 42 38.3431V27.3166C40.7715 29.3971 39.129 31.3171 38.424 32.1031ZM30.4725 25.2391L27 23.8501V39.2071L33 41.6071V29.5621C32.0415 28.2706 31.041 26.7151 30.4725 25.2391Z" fill="white"/>
</g>
<defs>
<clipPath id="clip0_370_6842">
<rect width="24" height="24" fill="white" transform="translate(18 18)"/>
</clipPath>
</defs>
</svg>
