<svg width="60" height="60" viewBox="0 0 60 60" fill="none" xmlns="http://www.w3.org/2000/svg">
<rect width="60" height="60" rx="30" fill="#4A21EF"/>
<path d="M29.7733 29.4473C32.5956 29.4473 34.8835 27.1594 34.8835 24.3371C34.8835 21.5148 32.5956 19.2269 29.7733 19.2269C26.951 19.2269 24.6631 21.5148 24.6631 24.3371C24.6631 27.1594 26.951 29.4473 29.7733 29.4473Z" fill="white"/>
<path fill-rule="evenodd" clip-rule="evenodd" d="M34.9704 40.287C35.111 40.4275 35.3016 40.5064 35.5004 40.5064C35.6991 40.5064 35.8897 40.4275 36.0304 40.287L39.7594 36.558C40.3938 35.9226 40.7501 35.0614 40.7501 34.1635C40.7501 33.2656 40.3938 32.4045 39.7594 31.769C39.2076 31.218 38.4827 30.8741 37.7069 30.7952C36.931 30.7163 36.1518 30.9074 35.5004 31.336C34.849 30.9074 34.0697 30.7163 33.2939 30.7952C32.5181 30.8741 31.7932 31.218 31.2414 31.769C30.6098 32.402 30.2538 33.2588 30.251 34.153C30.2482 35.0471 30.5988 35.9062 31.2264 36.543L34.9704 40.287Z" fill="white"/>
<path fill-rule="evenodd" clip-rule="evenodd" d="M32.227 39.6605L29.6561 37.0896C28.9485 36.372 28.5317 35.4178 28.486 34.411C28.4404 33.4042 28.7692 32.4162 29.409 31.6375C29.1795 31.6282 28.9481 31.6235 28.714 31.6235C25.6274 31.6235 22.8949 32.3956 21.1983 33.5524C19.904 34.4351 19.1904 35.5565 19.1904 36.7337V38.081C19.1909 38.4997 19.3575 38.9012 19.6536 39.1973C19.9497 39.4934 20.3512 39.66 20.7699 39.6605H32.227Z" fill="white"/>
</svg>
