<svg width="60" height="60" viewBox="0 0 60 60" fill="none" xmlns="http://www.w3.org/2000/svg">
<rect width="60" height="60" rx="30" fill="#4A21EF"/>
<g clip-path="url(#clip0_370_6850)">
<path d="M29.1674 24.6348H27.9762V18.6852C27.9762 18.3068 27.6688 18 27.2895 18H22.4949C22.1157 18 21.8083 18.3068 21.8083 18.6852V24.6348H20.6171C19.174 24.6348 18 25.8064 18 27.2465V39.3836C18 40.8237 19.174 41.9953 20.6171 41.9953H24.5934C23.9055 41.236 23.486 40.23 23.486 39.1279V31.4621C23.486 29.103 25.408 27.1837 27.7704 27.1837H29.0871V26.4108C29.0871 25.7334 29.4065 25.1295 29.9022 24.7402C29.6635 24.6703 29.4161 24.6348 29.1674 24.6348ZM23.1816 24.6348V19.3704H26.6029V24.6348H23.1816Z" fill="white"/>
<path d="M39.1222 28.59H36.3993V26.4109C36.3993 26.0143 36.0771 25.6927 35.6797 25.6927H31.2133C30.8159 25.6927 30.4937 26.0143 30.4937 26.4109V28.59H27.7707C26.1837 28.59 24.8926 29.8784 24.8926 31.4621V36.0037H42.0004V31.4621C42.0004 29.8784 40.7093 28.59 39.1222 28.59ZM31.933 27.129H34.9601V28.59H31.933V27.129ZM24.8927 39.1279C24.8927 40.7116 26.1838 42 27.7708 42H39.1223C40.7093 42 42.0004 40.7116 42.0004 39.1279V37.4399H24.8927V39.1279Z" fill="white"/>
</g>
<defs>
<clipPath id="clip0_370_6850">
<rect width="24" height="24" fill="white" transform="translate(18 18)"/>
</clipPath>
</defs>
</svg>
