<svg width="60" height="60" viewBox="0 0 60 60" fill="none" xmlns="http://www.w3.org/2000/svg">
<rect width="60" height="60" rx="30" fill="#4A21EF"/>
<path d="M41.4086 29.7657C41.0378 29.3953 40.5448 29.1856 40.0209 29.1758L39.4934 29.1658L39.3558 28.6566C38.5416 25.646 36.3438 23.2846 33.5608 22.1823C33.8943 22.7738 34.085 23.4562 34.085 24.1823C34.085 26.4348 32.2524 28.2673 30 28.2673C27.7475 28.2673 25.9149 26.4348 25.9149 24.1823H27.3203C27.3203 25.6599 28.5224 26.862 30 26.862C31.4775 26.862 32.6797 25.6599 32.6797 24.1823C32.6797 22.7047 31.4775 21.5026 30 21.5026C29.8634 21.5026 29.7273 21.5055 29.5918 21.5112H29.4649C28.1465 21.5075 27.0751 20.434 27.0751 19.1148H25.6697C25.6697 20.0226 25.9899 20.8567 26.5228 21.5112H25.8425C24.521 21.5112 23.4459 20.4361 23.4459 19.1146H22.0406C22.0406 20.9533 23.3527 22.4911 25.0897 22.8414C22.9566 24.0963 21.3215 26.1518 20.6442 28.6566L20.5065 29.1658L19.9791 29.1758C19.4552 29.1856 18.9622 29.3953 18.5909 29.7662C18.21 30.1474 18 30.6547 18 31.194C18 32.2862 18.8879 33.1916 19.9792 33.2123L20.5066 33.2222L20.6442 33.7314C21.7833 37.9436 25.6305 40.8854 30 40.8854C34.3694 40.8854 38.2166 37.9436 39.3557 33.7314L39.4934 33.2222L40.0208 33.2123C41.1121 33.1916 42 32.2862 42 31.194C42 30.6547 41.79 30.1474 41.4086 29.7657ZM25.4633 30.3983C24.8502 30.3983 24.3513 30.8971 24.3513 31.5102H22.946C22.946 30.1222 24.0753 28.9929 25.4633 28.9929C26.8514 28.9929 27.9806 30.1222 27.9806 31.5102H26.5753C26.5754 30.8971 26.0765 30.3983 25.4633 30.3983ZM30 37.6303C28.4744 37.6303 27.0442 36.8127 26.2676 35.4967L27.478 34.7825C28.003 35.6722 28.9694 36.2249 30 36.2249C31.0306 36.2249 31.9971 35.6722 32.5221 34.7825L33.7324 35.4967C32.9558 36.8127 31.5257 37.6303 30 37.6303ZM35.6487 31.5102C35.6487 30.8971 35.1498 30.3983 34.5367 30.3983C33.9235 30.3983 33.4247 30.8971 33.4247 31.5102H32.0193C32.0193 30.1222 33.1486 28.9929 34.5367 28.9929C35.9247 28.9929 37.054 30.1222 37.054 31.5102H35.6487Z" fill="white"/>
</svg>
