<svg width="60" height="60" viewBox="0 0 60 60" fill="none" xmlns="http://www.w3.org/2000/svg">
<rect width="60" height="60" rx="30" fill="#4A21EF"/>
<path d="M26.5117 23.8407H33.4877L35.6971 19.7618C35.7681 19.6306 35.7956 19.4801 35.7755 19.3323C35.7554 19.1844 35.6888 19.0467 35.5853 18.9392C35.4818 18.8317 35.3467 18.76 35.1997 18.7343C35.0527 18.7086 34.9013 18.7304 34.7675 18.7965C33.1864 19.5771 31.8038 19.244 30.2029 18.8584C28.6197 18.4771 26.8256 18.0449 24.6955 18.7604C24.5983 18.793 24.5094 18.8466 24.4351 18.9172C24.3608 18.9878 24.3028 19.0739 24.2652 19.1693C24.2276 19.2648 24.2114 19.3672 24.2176 19.4696C24.2239 19.572 24.2524 19.6717 24.3013 19.7619L26.5117 23.8407ZM34.2232 25.5325C34.1318 25.4378 34.0398 25.3425 33.9472 25.2466H26.0522C25.9597 25.3424 25.8677 25.4377 25.7762 25.5325C24.3506 27.0074 23.0041 28.4005 22.0018 29.96C20.8493 31.7532 20.3125 33.511 20.3125 35.4922C20.3125 37.791 21.5519 39.546 23.8967 40.5675C25.9021 41.4411 28.3221 41.6245 29.9991 41.6245C31.6884 41.6245 34.1218 41.441 36.1214 40.5671C38.4541 39.5476 39.6871 37.7927 39.6871 35.4922C39.6871 33.511 39.1502 31.7531 37.9978 29.96C36.9955 28.4005 35.6489 27.0074 34.2232 25.5325ZM30.1437 32.0451C30.6473 32.151 31.168 32.2607 31.6146 32.555C32.1949 32.9376 32.4892 33.5288 32.4892 34.3123C32.4892 35.3467 31.7338 36.222 30.7021 36.5007V36.8634C30.7021 37.0499 30.628 37.2288 30.4961 37.3606C30.3643 37.4925 30.1854 37.5666 29.9989 37.5666C29.8125 37.5666 29.6336 37.4925 29.5018 37.3606C29.3699 37.2288 29.2958 37.0499 29.2958 36.8634V36.5007C28.2641 36.222 27.5087 35.3467 27.5087 34.3123C27.5087 34.1258 27.5828 33.947 27.7146 33.8151C27.8465 33.6833 28.0253 33.6092 28.2118 33.6092C28.3983 33.6092 28.5772 33.6833 28.709 33.8151C28.8409 33.947 28.915 34.1258 28.915 34.3123C28.915 34.7951 29.4012 35.1877 29.9989 35.1877C30.5966 35.1877 31.0829 34.795 31.0829 34.3123C31.0829 33.7686 30.9107 33.6435 29.8541 33.4212C29.3506 33.3152 28.8299 33.2056 28.3833 32.9113C27.8029 32.5287 27.5087 31.9374 27.5087 31.1539C27.5087 30.1189 28.2641 29.2432 29.2958 28.9643V28.6028C29.2958 28.4163 29.3699 28.2375 29.5018 28.1056C29.6336 27.9738 29.8125 27.8997 29.9989 27.8997C30.1854 27.8997 30.3643 27.9738 30.4961 28.1056C30.628 28.2375 30.7021 28.4163 30.7021 28.6028V28.9641C31.7338 29.243 32.4892 30.1188 32.4892 31.1538C32.4892 31.3403 32.4151 31.5191 32.2832 31.651C32.1514 31.7828 31.9725 31.8569 31.786 31.8569C31.5996 31.8569 31.4207 31.7828 31.2889 31.651C31.157 31.5191 31.0829 31.3403 31.0829 31.1538C31.0829 30.6704 30.5966 30.2772 29.9989 30.2772C29.4012 30.2772 28.915 30.6705 28.915 31.1538C28.9151 31.6978 29.0874 31.8227 30.1439 32.0451H30.1437Z" fill="white"/>
</svg>
