<svg width="100" height="24" viewBox="0 0 100 24" fill="none" xmlns="http://www.w3.org/2000/svg">
<path d="M14.9317 13.9334C14.7159 14.1426 14.6167 14.4451 14.6659 14.7418L15.4067 18.8418C15.4692 19.1893 15.3226 19.5409 15.0317 19.7418C14.7467 19.9501 14.3676 19.9751 14.0567 19.8084L10.3659 17.8834C10.2376 17.8151 10.0951 17.7784 9.94924 17.7743H9.72341C9.64508 17.7859 9.56841 17.8109 9.49841 17.8493L5.80675 19.7834C5.62425 19.8751 5.41758 19.9076 5.21508 19.8751C4.72175 19.7818 4.39258 19.3118 4.47341 18.8159L5.21508 14.7159C5.26425 14.4168 5.16508 14.1126 4.94925 13.9001L1.94008 10.9834C1.68841 10.7393 1.60091 10.3726 1.71591 10.0418C1.82758 9.71177 2.11258 9.47094 2.45675 9.41677L6.59841 8.81594C6.91341 8.78344 7.19008 8.59177 7.33175 8.30844L9.15674 4.56677C9.20008 4.48344 9.25591 4.40677 9.32341 4.34177L9.39841 4.28344C9.43758 4.2401 9.48258 4.20427 9.53258 4.1751L9.62341 4.14177L9.76508 4.08344H10.1159C10.4292 4.11594 10.7051 4.30344 10.8492 4.58344L12.6984 8.30844C12.8317 8.58094 13.0909 8.7701 13.3901 8.81594L17.5317 9.41677C17.8817 9.46677 18.1742 9.70844 18.2901 10.0418C18.3992 10.3759 18.3051 10.7426 18.0484 10.9834L14.9317 13.9334Z" fill="#4A21EF"/>
<path d="M34.9317 13.9334C34.7159 14.1426 34.6167 14.4451 34.6659 14.7418L35.4067 18.8418C35.4692 19.1893 35.3226 19.5409 35.0317 19.7418C34.7467 19.9501 34.3676 19.9751 34.0567 19.8084L30.3659 17.8834C30.2376 17.8151 30.0951 17.7784 29.9492 17.7743H29.7234C29.6451 17.7859 29.5684 17.8109 29.4984 17.8493L25.8067 19.7834C25.6242 19.8751 25.4176 19.9076 25.2151 19.8751C24.7217 19.7818 24.3926 19.3118 24.4734 18.8159L25.2151 14.7159C25.2642 14.4168 25.1651 14.1126 24.9492 13.9001L21.9401 10.9834C21.6884 10.7393 21.6009 10.3726 21.7159 10.0418C21.8276 9.71177 22.1126 9.47094 22.4567 9.41677L26.5984 8.81594C26.9134 8.78344 27.1901 8.59177 27.3317 8.30844L29.1567 4.56677C29.2001 4.48344 29.2559 4.40677 29.3234 4.34177L29.3984 4.28344C29.4376 4.2401 29.4826 4.20427 29.5326 4.1751L29.6234 4.14177L29.7651 4.08344H30.1159C30.4292 4.11594 30.7051 4.30344 30.8492 4.58344L32.6984 8.30844C32.8317 8.58094 33.0909 8.7701 33.3901 8.81594L37.5317 9.41677C37.8817 9.46677 38.1742 9.70844 38.2901 10.0418C38.3992 10.3759 38.3051 10.7426 38.0484 10.9834L34.9317 13.9334Z" fill="#4A21EF"/>
<path d="M54.9317 13.9334C54.7159 14.1426 54.6167 14.4451 54.6659 14.7418L55.4067 18.8418C55.4692 19.1893 55.3226 19.5409 55.0317 19.7418C54.7467 19.9501 54.3676 19.9751 54.0567 19.8084L50.3659 17.8834C50.2376 17.8151 50.0951 17.7784 49.9492 17.7743H49.7234C49.6451 17.7859 49.5684 17.8109 49.4984 17.8493L45.8067 19.7834C45.6242 19.8751 45.4176 19.9076 45.2151 19.8751C44.7217 19.7818 44.3926 19.3118 44.4734 18.8159L45.2151 14.7159C45.2642 14.4168 45.1651 14.1126 44.9492 13.9001L41.9401 10.9834C41.6884 10.7393 41.6009 10.3726 41.7159 10.0418C41.8276 9.71177 42.1126 9.47094 42.4567 9.41677L46.5984 8.81594C46.9134 8.78344 47.1901 8.59177 47.3317 8.30844L49.1567 4.56677C49.2001 4.48344 49.2559 4.40677 49.3234 4.34177L49.3984 4.28344C49.4376 4.2401 49.4826 4.20427 49.5326 4.1751L49.6234 4.14177L49.7651 4.08344H50.1159C50.4292 4.11594 50.7051 4.30344 50.8492 4.58344L52.6984 8.30844C52.8317 8.58094 53.0909 8.7701 53.3901 8.81594L57.5317 9.41677C57.8817 9.46677 58.1742 9.70844 58.2901 10.0418C58.3992 10.3759 58.3051 10.7426 58.0484 10.9834L54.9317 13.9334Z" fill="#4A21EF"/>
<path d="M74.9317 13.9334C74.7159 14.1426 74.6167 14.4451 74.6659 14.7418L75.4067 18.8418C75.4692 19.1893 75.3226 19.5409 75.0317 19.7418C74.7467 19.9501 74.3676 19.9751 74.0567 19.8084L70.3659 17.8834C70.2376 17.8151 70.0951 17.7784 69.9492 17.7743H69.7234C69.6451 17.7859 69.5684 17.8109 69.4984 17.8493L65.8067 19.7834C65.6242 19.8751 65.4176 19.9076 65.2151 19.8751C64.7217 19.7818 64.3926 19.3118 64.4734 18.8159L65.2151 14.7159C65.2642 14.4168 65.1651 14.1126 64.9492 13.9001L61.9401 10.9834C61.6884 10.7393 61.6009 10.3726 61.7159 10.0418C61.8276 9.71177 62.1126 9.47094 62.4567 9.41677L66.5984 8.81594C66.9134 8.78344 67.1901 8.59177 67.3317 8.30844L69.1567 4.56677C69.2001 4.48344 69.2559 4.40677 69.3234 4.34177L69.3984 4.28344C69.4376 4.2401 69.4826 4.20427 69.5326 4.1751L69.6234 4.14177L69.7651 4.08344H70.1159C70.4292 4.11594 70.7051 4.30344 70.8492 4.58344L72.6984 8.30844C72.8317 8.58094 73.0909 8.7701 73.3901 8.81594L77.5317 9.41677C77.8817 9.46677 78.1742 9.70844 78.2901 10.0418C78.3992 10.3759 78.3051 10.7426 78.0484 10.9834L74.9317 13.9334Z" fill="#4A21EF"/>
<path fill-rule="evenodd" clip-rule="evenodd" d="M90.9202 5.48086L92.4431 8.52315C92.5923 8.82182 92.8804 9.02892 93.2145 9.07684L96.6211 9.5672C97.4628 9.68872 97.7977 10.7088 97.1886 11.2933L94.7252 13.6604C94.4831 13.8932 94.3729 14.2278 94.4301 14.5564L95.0115 17.8982C95.1547 18.7249 94.2748 19.3556 93.5225 18.9645L90.4777 17.3856C90.1792 17.2307 89.8217 17.2307 89.5223 17.3856L86.4775 18.9645C85.7252 19.3556 84.8453 18.7249 84.9894 17.8982L85.5699 14.5564C85.6271 14.2278 85.5169 13.8932 85.2748 13.6604L82.8114 11.2933C82.2023 10.7088 82.5372 9.68872 83.3789 9.5672L86.7855 9.07684C87.1196 9.02892 87.4086 8.82182 87.5578 8.52315L89.0798 5.48086C89.4564 4.72863 90.5436 4.72863 90.9202 5.48086Z" stroke="#4A21EF" stroke-width="1.5" stroke-linecap="round" stroke-linejoin="round"/>
</svg>
