<svg width="24" height="24" viewBox="0 0 24 24" fill="none" xmlns="http://www.w3.org/2000/svg">
<path d="M22.5081 11.272C21.7276 9.56533 18.6672 4 12.0005 4C5.33387 4 2.27343 9.56533 1.49298 11.272C1.38822 11.5007 1.33398 11.7493 1.33398 12.0009C1.33398 12.2525 1.38822 12.5011 1.49298 12.7298C2.27343 14.4347 5.33387 20 12.0005 20C18.6672 20 21.7276 14.4347 22.5081 12.728C22.6126 12.4995 22.6668 12.2512 22.6668 12C22.6668 11.7488 22.6126 11.5005 22.5081 11.272ZM12.0005 18.2222C6.39431 18.2222 3.77831 13.4524 3.11165 12.0098C3.77831 10.5476 6.39431 5.77778 12.0005 5.77778C17.5934 5.77778 20.2103 10.5271 20.8894 12C20.2103 13.4729 17.5934 18.2222 12.0005 18.2222Z" fill="#141D24"/>
<path d="M12.0001 7.55591C11.1211 7.55591 10.2618 7.81657 9.53091 8.30493C8.80002 8.79329 8.23037 9.48742 7.89398 10.2995C7.55759 11.1117 7.46957 12.0053 7.64106 12.8674C7.81255 13.7296 8.23585 14.5215 8.85741 15.1431C9.47898 15.7646 10.2709 16.1879 11.133 16.3594C11.9952 16.5309 12.8888 16.4429 13.7009 16.1065C14.513 15.7701 15.2072 15.2004 15.6955 14.4696C16.1839 13.7387 16.4446 12.8794 16.4446 12.0004C16.4431 10.822 15.9744 9.6924 15.1412 8.85921C14.3081 8.02603 13.1784 7.55732 12.0001 7.55591ZM12.0001 14.667C11.4727 14.667 10.9571 14.5106 10.5186 14.2176C10.0801 13.9246 9.73827 13.5081 9.53643 13.0208C9.3346 12.5336 9.28179 11.9974 9.38468 11.4801C9.48758 10.9628 9.74155 10.4877 10.1145 10.1147C10.4874 9.74179 10.9626 9.48782 11.4799 9.38493C11.9972 9.28203 12.5333 9.33484 13.0206 9.53667C13.5079 9.73851 13.9243 10.0803 14.2174 10.5188C14.5104 10.9574 14.6668 11.4729 14.6668 12.0004C14.6668 12.7076 14.3858 13.3859 13.8857 13.886C13.3856 14.3861 12.7074 14.667 12.0001 14.667Z" fill="#141D24"/>
</svg>
