<svg width="142" height="40" viewBox="0 0 142 40" fill="none" xmlns="http://www.w3.org/2000/svg">
<path d="M25.3296 23.7591C25.1974 23.6952 25.0964 23.6492 25.029 23.6287C25.0082 23.6057 24.9616 23.5955 24.8968 23.5955C24.8501 23.5955 24.7957 23.6057 24.7283 23.6287C24.5728 23.6287 24.4276 23.6722 24.2929 23.7591C24.1607 23.8486 24.0052 24.0021 23.8263 24.222C23.6034 24.5314 23.3235 24.8766 22.9891 25.2602C22.9191 25.3395 22.8543 25.4162 22.7895 25.4878C22.5485 25.7665 22.3463 25.9941 22.1882 26.168C22.0975 26.2779 21.9705 26.4211 21.802 26.5976C21.6361 26.774 21.4858 26.9607 21.351 27.1576C20.9726 27.5744 20.3713 28.2086 19.547 29.055C18.7202 29.9014 17.9426 30.6763 17.2065 31.3795C16.2916 32.2361 15.4336 32.9675 14.6327 33.5735C13.8292 34.177 13.2279 34.535 12.8262 34.645C12.738 34.668 12.6603 34.6782 12.5929 34.6782C12.3466 34.6782 12.1678 34.5452 12.0564 34.2819C11.9682 34.085 11.9242 33.7321 11.9242 33.2258V32.699C11.9242 32.3486 11.9345 31.9727 11.9579 31.5764C12.1574 30.0165 12.6032 28.2342 13.2953 26.2345C13.3834 26.035 13.4715 25.8228 13.5623 25.5901C13.6504 25.3599 13.7178 25.1681 13.7618 25.0147C13.8059 24.8383 13.8681 24.6516 13.9459 24.4521C14.0236 24.2552 14.0962 24.0788 14.1636 23.9253C14.1843 23.9023 14.1973 23.8716 14.1973 23.8256C14.2647 23.6952 14.3191 23.5571 14.3632 23.4139C14.4098 23.2707 14.4539 23.1454 14.498 23.0355C14.542 22.9025 14.6198 22.6928 14.7312 22.4089C14.8427 22.1225 14.9671 21.8361 15.0993 21.5497C15.2781 21.1534 15.457 20.7468 15.6358 20.33C15.7447 20.087 15.8354 19.8799 15.9028 19.7035C16.0583 19.3071 16.2086 18.9568 16.3538 18.6474C16.4989 18.3405 16.7166 17.9007 17.0043 17.3279C17.0951 17.131 17.2065 16.8983 17.3387 16.6349L18.7928 13.8731C16.6648 14.492 14.4902 15.1696 12.4996 15.8677C12.0745 16.8011 11.7142 17.645 11.4213 18.3993C11.0429 19.3787 10.6204 20.5397 10.1513 21.8796C9.97244 22.4089 9.78323 23.0457 9.58365 23.7924C9.38148 24.5416 9.23892 25.1451 9.1482 25.608C9.12747 25.7614 9.09377 25.9327 9.04712 26.1194C9.00306 26.3061 8.96936 26.4646 8.94862 26.5976C8.90456 26.728 8.86568 26.9326 8.83199 27.2062C8.79829 27.4824 8.75941 27.7739 8.71535 28.0807C8.6039 28.9399 8.54688 29.7531 8.54688 30.5228C8.54688 31.4025 8.62463 32.2157 8.78015 32.9624C9.11451 34.8547 10.1072 36.031 11.7557 36.4913C11.9112 36.5373 12.0693 36.5808 12.2248 36.6242C12.3803 36.6677 12.5022 36.7009 12.5929 36.724C12.7691 36.7674 12.948 36.7879 13.1268 36.7879C13.8396 36.7879 14.6638 36.504 15.6021 35.9312C16.0013 35.6678 16.3745 35.4045 16.7218 35.1411C17.0666 34.8751 17.5072 34.512 18.0411 34.0517C18.4429 33.6784 18.8498 33.2769 19.2619 32.8473C19.674 32.4177 20.1976 31.8372 20.8326 31.0982C21.167 30.7095 21.5661 30.2492 22.0301 29.7097C22.4422 29.2264 22.9062 28.6868 23.4246 28.0807C25.0523 26.191 25.8662 25.0352 25.8662 24.6183C25.8662 24.2885 25.6873 24.0021 25.3296 23.7591ZM20.3376 10.9375L20.7678 10.1218C20.7886 10.0399 20.8404 9.91465 20.9259 9.74332C20.97 9.65637 21.0244 9.55664 21.084 9.44413C21.1514 9.33417 21.2292 9.18074 21.3173 8.98384C21.5402 8.54401 21.815 8.00956 22.1364 7.38305C22.4604 6.75655 22.7455 6.17351 22.9891 5.63395C23.2354 5.09695 23.3675 4.74917 23.3909 4.59574V4.46277C23.3909 3.936 23.0228 3.48593 22.2867 3.11259C21.8642 2.89267 21.4625 2.78271 21.084 2.78271C20.8611 2.78271 20.6486 2.82619 20.449 2.91313C20.2261 3.02309 19.8581 3.42968 19.3449 4.1329C18.8317 4.83867 18.2822 5.64162 17.6912 6.54175C17.1002 7.44443 16.5819 8.26783 16.1361 9.01708C15.9365 9.32394 15.7784 9.56687 15.6669 9.74076C15.6151 9.82003 15.1278 10.7227 14.599 11.7047C14.3709 12.124 14.1377 12.5613 13.9277 12.9526C13.5545 13.6558 13.259 14.2184 13.2279 14.2925C13.1812 14.405 13.1294 14.5227 13.0724 14.648C15.1045 13.9499 17.3024 13.2773 19.4278 12.6662L20.3376 10.9375Z" fill="#4A21EF"/>
<path d="M37.6515 22.0944C37.5271 21.6878 37.2886 21.2199 36.9309 20.6931C36.708 20.3837 36.4073 20.0436 36.0289 19.6702C35.6505 19.2969 35.2824 18.967 34.9248 18.6806C34.1005 18.1078 33.4759 17.6859 33.0534 17.4097C32.6283 17.1361 32.3069 16.9596 32.084 16.8829C31.8611 16.8062 31.6382 16.7576 31.4153 16.7346C31.1691 16.7346 30.8813 16.7627 30.5444 16.8164C30.21 16.8727 29.899 16.9443 29.6087 17.0313C29.3651 17.1412 29.0307 17.333 28.6056 17.6092C28.1831 17.8828 27.8047 18.1743 27.4704 18.4837C27.0453 18.8571 26.545 19.389 25.9645 20.0819C25.3865 20.7749 24.8732 21.4398 24.4274 22.0791C24.2279 22.386 23.992 22.8104 23.725 23.3474C23.4581 23.887 23.2351 24.3754 23.0563 24.8153C22.9604 25.0428 22.8723 25.2679 22.7893 25.4878C22.2787 26.8763 22.0195 28.1575 22.0195 29.3338C22.0195 29.4616 22.0195 29.5869 22.0299 29.7097C22.0351 29.8171 22.0429 29.9245 22.0532 30.0268C22.0973 30.5765 22.1491 30.9959 22.2036 31.2798C22.2606 31.5662 22.3435 31.8628 22.455 32.1722C22.766 33.1158 23.147 33.7986 23.5902 34.2154C24.6607 35.228 25.7545 35.8315 26.869 36.031C27.0686 36.0514 27.2578 36.0642 27.4367 36.0642C27.6362 36.0642 27.8592 36.0463 28.1054 36.0131C28.349 35.9798 28.73 35.8648 29.2407 35.6679C30.4459 35.251 31.6719 34.4046 32.9186 33.1286C34.5697 31.4358 35.8941 29.5435 36.8972 27.4543C37.0994 27.0374 37.2549 26.6845 37.3664 26.3981C37.4778 26.1143 37.5893 25.7614 37.7007 25.342C37.7448 25.1247 37.7785 24.9431 37.8018 24.7999C37.8225 24.6567 37.8329 24.5084 37.8329 24.355V23.7259C37.8329 23.0457 37.7733 22.501 37.6515 22.0944ZM34.8911 22.4729C34.8911 23.4855 34.6474 24.5749 34.1575 25.7384C33.9346 26.1782 33.6003 26.7561 33.1545 27.4722C32.7061 28.1856 32.2836 28.7968 31.8818 29.3005C30.858 30.5561 29.7305 31.5994 28.5071 32.4356C28.1261 32.699 27.8255 32.8857 27.6026 32.9956C27.3796 33.1056 27.1697 33.1951 26.9675 33.259C26.7887 33.3255 26.6228 33.3587 26.4673 33.3587C26.3118 33.3587 26.177 33.3255 26.0655 33.259C25.9308 33.2155 25.8478 33.1107 25.8141 32.947C25.7804 32.7808 25.7649 32.4791 25.7649 32.0392C25.7649 31.7094 25.7752 31.4562 25.7986 31.2798C25.8193 31.1059 25.853 30.8962 25.8997 30.6533C26.0318 30.193 26.1485 29.812 26.2496 29.5153C26.3506 29.2187 26.501 28.8607 26.7006 28.4439C27.3693 26.884 28.1831 25.3983 29.1422 23.9919C29.6528 23.2426 30.0934 22.634 30.4615 22.1609C30.8295 21.6878 31.2131 21.2531 31.6149 20.8568C32.084 20.3735 32.4624 20.0436 32.7527 19.8671C32.9523 19.7572 33.1311 19.7035 33.2867 19.7035C33.3748 19.7035 33.4655 19.7137 33.5536 19.7367C34.0228 19.8902 34.4116 20.3965 34.7252 21.2531C34.7926 21.4066 34.8366 21.5395 34.8574 21.6495C34.8807 21.7594 34.8911 21.8694 34.8911 21.9794V22.4729Z" fill="#4A21EF"/>
<path d="M58.0946 17.558C57.7602 17.4046 57.4492 17.3279 57.1589 17.3279C56.8919 17.3279 56.6457 17.4046 56.4228 17.558C56.1792 17.7345 55.6478 18.2894 54.8365 19.2253C54.0227 20.1587 53.1025 21.248 52.0761 22.4908C51.0523 23.7336 50.1037 24.9252 49.2354 26.0683C48.5433 26.9709 47.9472 27.7355 47.4469 28.362C46.9441 28.9885 46.348 29.7199 45.6585 30.5561C44.4999 31.9395 43.7638 32.6325 43.4528 32.6325C43.3621 32.6325 43.2895 32.5942 43.235 32.5174C43.178 32.4407 43.1495 32.3359 43.1495 32.2029C43.1495 32.006 43.1832 31.7375 43.2506 31.3948C43.318 31.0547 43.3854 30.7428 43.4528 30.4564C43.4968 30.3234 43.5616 30.1367 43.6524 29.8963C43.7638 29.5665 43.8753 29.2238 43.9867 28.8735C44.2977 27.8608 44.715 26.6845 45.2412 25.342C45.7648 24.0021 46.1821 23.0125 46.4931 22.3757C46.5838 22.1993 46.7056 21.9231 46.8612 21.5498C47.0167 21.1764 47.1748 20.798 47.3303 20.4118C47.4858 20.0282 47.5973 19.7367 47.6647 19.5373C47.732 19.3634 47.7632 19.1869 47.7632 19.0105C47.7632 18.3942 47.2733 17.8547 46.2935 17.3944C46.0706 17.2844 45.9021 17.2077 45.7907 17.1642C45.6792 17.1182 45.5859 17.0875 45.5082 17.0645C45.4304 17.0415 45.3241 17.0312 45.1894 17.0312C44.9898 17.0312 44.8109 17.0645 44.6554 17.131C44.4999 17.1975 44.3418 17.2946 44.1863 17.4276C43.9634 17.6245 43.7197 17.8956 43.4528 18.2357C43.1832 18.5758 42.9836 18.8903 42.8489 19.1742C42.7841 19.3301 42.6985 19.4887 42.6 19.6523C42.4989 19.8186 42.416 19.9566 42.3486 20.0666C42.1698 20.3735 41.9235 20.8619 41.6125 21.5344C41.3015 22.2044 41.006 22.8693 40.7261 23.529C40.4487 24.1888 40.2647 24.6618 40.174 24.9482L40.0755 25.2449C40.0081 25.4648 39.92 25.7052 39.8059 25.9711C39.7411 26.191 39.6789 26.4212 39.6245 26.6641C39.5675 26.9045 39.539 27.0911 39.539 27.2241C39.4068 27.9708 39.3109 28.5308 39.2564 28.9067C39.1994 29.2801 39.1709 29.5972 39.1709 29.8631V30.2262C39.1709 30.6865 39.2046 31.2158 39.272 31.8091C39.3394 32.4024 39.4508 32.8959 39.6063 33.2923C39.6737 33.4917 39.8293 33.7167 40.0755 33.9699C40.3191 34.2231 40.5757 34.4481 40.8427 34.645C41.1771 34.8879 41.6021 35.0899 42.1153 35.2562C42.6259 35.4198 43.051 35.5016 43.3854 35.5016C44.0074 35.5016 44.7436 35.1718 45.5911 34.512C46.1717 34.0517 46.7782 33.4457 47.4132 32.699C48.0483 31.9523 48.8569 30.8962 49.8367 29.5332C49.9715 29.3338 50.1166 29.1369 50.2721 28.94C50.495 28.6536 50.6609 28.4234 50.7724 28.247C50.8838 28.114 50.9849 27.9708 51.073 27.8174C51.2078 27.6639 51.3089 27.531 51.3763 27.421C51.7547 26.9147 52.0217 26.6641 52.1772 26.6641C52.2653 26.6641 52.3224 26.7178 52.3457 26.8277C52.3664 26.8712 52.3794 26.9377 52.3794 27.0246C52.3794 27.4006 52.2653 28.1575 52.045 29.3005C51.8429 30.4027 51.7418 31.336 51.7418 32.1057C51.7418 32.7859 51.8221 33.3383 51.9776 33.7551C52.0658 33.975 52.1954 34.2052 52.3612 34.4481C52.5297 34.6885 52.7008 34.8751 52.8796 35.0081C53.0585 35.1411 53.2632 35.2715 53.4991 35.4045C53.7324 35.5349 53.9164 35.6346 54.0486 35.7011C54.2067 35.7446 54.3518 35.7676 54.484 35.7676C54.5955 35.7676 54.7303 35.7497 54.8858 35.7164C55.0413 35.6832 55.1761 35.5809 55.2875 35.4045C55.3316 35.2945 55.3549 35.1846 55.3549 35.0746C55.3549 35.0516 55.3471 34.9902 55.3368 34.893C55.3264 34.7933 55.2875 34.6245 55.2201 34.3816C55.1294 34.1387 55.0854 33.8855 55.0854 33.6221C55.0854 33.4022 55.1139 33.0902 55.1709 32.6837C55.2253 32.2771 55.2875 31.9293 55.3549 31.6429C55.3757 31.5329 55.399 31.4025 55.4197 31.2465C55.4871 31.0062 55.5545 30.776 55.6219 30.5561C55.7541 29.9398 55.977 29.1036 56.2906 28.0475C56.6016 26.994 56.8919 26.1245 57.1589 25.4418L57.4933 24.3857C57.5373 24.2552 57.571 24.1453 57.5943 24.0558C57.6384 23.9024 57.6928 23.7157 57.7602 23.4958C57.8276 23.2758 57.895 23.0789 57.9624 22.9025C58.0272 22.7261 58.0946 22.5292 58.162 22.3092C58.2501 22.0663 58.3175 21.8694 58.3616 21.716C58.4082 21.5165 58.473 21.2761 58.5637 20.9897C58.6311 20.7903 58.6856 20.6164 58.7296 20.4604C58.8411 20.1101 58.937 19.7802 59.0147 19.4708C59.0925 19.1639 59.1314 18.9338 59.1314 18.7804C59.1314 18.2306 58.7866 17.824 58.0946 17.558Z" fill="#4A21EF"/>
<path d="M79.5264 24.8816C79.4357 24.6387 79.1921 24.3983 78.7903 24.1554C78.3886 23.9585 78.1216 23.6823 77.9868 23.332C77.8546 22.9791 77.7743 22.3628 77.7535 21.4832C77.7069 20.4066 77.5851 19.5883 77.3855 19.0257C77.1859 18.4657 76.8282 17.9773 76.315 17.5579C75.7577 17.0746 75.2679 16.8342 74.8454 16.8342C74.5318 16.8342 74.2415 16.9544 73.9745 17.1973C73.8864 17.2843 73.6453 17.5323 73.2565 17.9389C72.8651 18.3455 72.4427 18.7956 71.9865 19.2917C71.5277 19.7852 71.1337 20.2199 70.7994 20.5933C70.421 21.0561 69.9285 21.6724 69.3272 22.4395C68.7258 23.2118 68.1582 23.9789 67.6217 24.7487C67.4221 25.0146 67.1655 25.3547 66.8545 25.7715C66.6756 26.0579 66.4968 26.3111 66.3179 26.531C66.2531 26.641 66.1728 26.7509 66.0846 26.8609C65.8851 27.1473 65.6777 27.4439 65.4652 27.7508C65.2552 28.0602 65.0582 28.3338 64.882 28.5767C64.4569 29.1904 64.0889 29.6968 63.7778 30.0931C63.4668 30.4895 63.2439 30.7094 63.1091 30.7529C63.0651 30.7759 63.0314 30.7861 63.008 30.7861H62.9769C62.9536 30.7861 62.9303 30.7631 62.9095 30.7196V30.5867C62.9095 30.5432 62.9147 30.4665 62.9251 30.3565C62.9355 30.2466 62.9925 30.0445 63.0936 29.7479C63.1921 29.4487 63.332 29.0498 63.5109 28.5435L63.5783 28.344C63.8012 27.6843 63.9774 27.1677 64.1122 26.7944C64.247 26.421 64.4129 26.0093 64.615 25.5567C64.8146 25.1067 65.1153 24.452 65.517 23.5954C65.6051 23.3985 65.7062 23.1888 65.8177 22.9689C65.9058 22.7259 66.051 22.414 66.2531 22.0278C66.4527 21.6443 66.6419 21.276 66.8208 20.9231C67.0877 20.3964 67.2873 19.977 67.4221 19.6701C67.4895 19.5602 67.5335 19.4835 67.5569 19.44C67.5569 19.3939 67.5621 19.3172 67.5724 19.2073C67.5828 19.0973 67.5906 18.9874 67.5906 18.8774C67.5672 18.5936 67.4558 18.3455 67.2562 18.1358C67.054 17.9261 66.686 17.6909 66.152 17.4275H66.1183C65.8954 17.3175 65.727 17.2408 65.6181 17.1973C65.5041 17.1513 65.3719 17.1309 65.2164 17.1309H65.0479C64.7576 17.1309 64.4699 17.2408 64.1796 17.4607C63.8893 17.6807 63.5109 18.1307 63.0417 18.8135C62.373 19.8236 61.8494 20.7083 61.471 21.4678C61.0926 22.2273 60.6235 23.3192 60.0662 24.7487C58.8869 27.894 58.2959 30.4997 58.2959 32.5659C58.2959 33.0722 58.3296 33.5453 58.3944 33.9851C58.5525 35.0847 59.1746 35.7214 60.2684 35.8979C60.4472 35.9439 60.6183 35.9644 60.7867 35.9644H61.3699C61.5721 35.9644 61.7276 35.9593 61.8391 35.949C61.9505 35.9362 62.0438 35.9158 62.1242 35.8825C62.2019 35.8493 62.3186 35.8109 62.4741 35.7675C62.6737 35.6575 62.8758 35.5194 63.0754 35.3532C63.2776 35.1896 63.5109 34.9313 63.7778 34.5784C64.0448 34.2281 64.4025 33.732 64.8483 33.0952C65.0038 32.8523 65.2034 32.5557 65.4496 32.2028C65.6492 31.8959 65.8514 31.5993 66.051 31.3129C66.9866 29.84 67.969 28.3773 68.9928 26.9274C70.0192 25.4749 70.9212 24.2551 71.7014 23.2655C72.326 22.5188 72.7718 22.0074 73.0388 21.7312C73.3058 21.4576 73.5079 21.3195 73.6401 21.3195C73.819 21.3195 74.0082 21.5829 74.2104 22.1097C74.2752 22.2656 74.3659 22.4625 74.4773 22.7055C74.5888 22.9459 74.7002 23.1786 74.8117 23.3985C74.9439 23.7053 75.0553 23.9304 75.146 24.0736C75.2342 24.2168 75.3689 24.3753 75.5478 24.5517L75.5789 24.585C75.7137 24.7154 75.8303 24.8279 75.9314 24.9149C76.0325 25.0018 76.1543 25.0862 76.2995 25.1629C76.4446 25.2396 76.6494 25.3419 76.9163 25.4749C77.0071 25.4979 77.0848 25.5184 77.1522 25.5414C77.4399 25.6513 77.7535 25.7511 78.0879 25.838C78.2201 25.861 78.3445 25.8712 78.4559 25.8712C78.6322 25.8712 78.8007 25.838 78.9562 25.7715C79.3579 25.5746 79.5575 25.3317 79.5575 25.0453C79.5575 25.0018 79.5471 24.9481 79.5264 24.8816Z" fill="#4A21EF"/>
<path d="M89.5735 12.3797C89.5605 12.3132 89.5501 12.2544 89.5398 12.1981C89.5268 12.1444 89.5009 12.083 89.4568 12.0166V11.9833C89.3428 11.7429 89.0888 11.5333 88.687 11.3568C88.3734 11.2264 88.0727 11.1599 87.785 11.1599C87.4273 11.1599 86.9971 11.2878 86.4968 11.5384C85.9966 11.7915 85.6337 12.2595 85.4108 12.9397C85.3875 13.0522 85.3771 13.1724 85.3771 13.3028C85.3771 13.5227 85.4316 13.7452 85.543 13.9626C85.6985 14.2055 85.9448 14.4484 86.2791 14.6888C86.6135 14.9317 86.9582 15.1184 87.3159 15.2488C87.5155 15.3383 87.7176 15.3818 87.9172 15.3818C88.4304 15.3818 88.8425 15.0519 89.1536 14.3922C89.3998 13.9958 89.5346 13.469 89.5553 12.8093C89.5786 12.7223 89.589 12.6431 89.589 12.5791C89.589 12.5152 89.5838 12.4462 89.5735 12.3797ZM95.439 23.6286C95.2835 23.4957 95.128 23.4292 94.9725 23.4292C94.7599 23.4292 94.537 23.5366 94.3037 23.7488C94.1949 23.8511 94.0834 23.9739 93.9694 24.1222C92.7875 25.5746 91.3671 27.1345 89.7056 28.8069C88.0468 30.4767 86.6031 31.809 85.3771 32.7986C84.952 33.149 84.6177 33.4072 84.374 33.5735C84.1278 33.7371 83.8608 33.8982 83.5705 34.0516C83.2595 34.2051 83.0133 34.2818 82.837 34.2818C82.6608 34.2818 82.513 34.2281 82.4016 34.1181C82.2668 33.9852 82.1994 33.732 82.1994 33.3587C82.1994 32.8319 82.3238 32.0724 82.5675 31.0828C82.9692 29.4999 83.7935 27.4209 85.0428 24.8484C85.1983 24.5416 85.3823 24.1605 85.5948 23.7105C85.8048 23.2604 86.0018 22.8487 86.178 22.4728C86.4683 21.923 86.6809 21.496 86.8156 21.1866C86.9478 20.8797 87.036 20.6496 87.0826 20.4936C87.1267 20.3401 87.1474 20.1969 87.1474 20.0665C87.1474 19.9131 87.137 19.7955 87.1163 19.7187C87.093 19.642 87.0593 19.55 87.0152 19.44C86.7249 19.0871 86.2454 18.7368 85.5767 18.3839V18.3507C85.3771 18.2637 85.2268 18.2075 85.1257 18.1844C85.0246 18.164 84.8743 18.1538 84.6747 18.1538C84.1615 18.1538 83.7105 18.297 83.3217 18.5808C82.9303 18.8672 82.4897 19.3633 81.9998 20.0665C81.8003 20.3964 81.5436 20.8465 81.23 21.4193C80.919 21.9895 80.6961 22.4396 80.5613 22.7694C79.8485 24.5313 79.3587 26.1142 79.0917 27.5207C78.8454 28.5537 78.7236 29.5868 78.7236 30.6199C78.7236 31.4561 78.8014 32.2821 78.9569 33.0953C79.0476 33.4686 79.1539 33.7831 79.2757 34.0337C79.3975 34.2869 79.5712 34.5452 79.7941 34.8111C79.9937 35.0515 80.1959 35.2663 80.3954 35.453C80.595 35.6396 80.8412 35.8212 81.1315 35.9977C81.7329 36.371 82.2124 36.5909 82.5675 36.6574C82.723 36.6779 82.8811 36.6906 83.0366 36.6906H83.4539C83.6431 36.6906 83.8271 36.6676 84.006 36.6242C84.9417 36.4273 86.2247 35.568 87.8498 34.0516C88.2749 33.6553 88.6974 33.2257 89.1225 32.7654C89.5449 32.3025 90.1359 31.6326 90.8928 30.7529C92.5879 28.8171 93.7853 27.4209 94.4878 26.5643C94.7288 26.2702 94.9336 26.0119 95.1072 25.792C95.4338 25.365 95.636 25.0734 95.7086 24.9149C95.7967 24.7385 95.8408 24.562 95.8408 24.3856C95.8408 24.1017 95.7086 23.8486 95.439 23.6286Z" fill="#4A21EF"/>
<path d="M110.266 18.3022C110.256 18.1156 109.981 17.8547 109.447 17.5249C109.292 17.4175 109.131 17.2845 108.962 17.1311C108.797 16.9776 108.657 16.8447 108.545 16.7347C108.099 16.2054 107.61 15.878 107.073 15.7451C106.718 15.6351 106.316 15.5789 105.87 15.5789C105.536 15.5789 105.178 15.6121 104.8 15.6786C103.82 15.832 102.726 16.1619 101.524 16.6682C100.321 17.1745 99.1935 17.778 98.1464 18.4838C97.7239 18.7676 97.3895 19.0055 97.1433 19.1921C96.8997 19.3788 96.6482 19.6089 96.3916 19.8851C96.135 20.1587 95.7618 20.573 95.2719 21.1202C95.0931 21.3401 94.9142 21.6266 94.738 21.9794C94.5591 22.3323 94.4244 22.6494 94.3362 22.9358C94.3129 23.0892 94.3025 23.2555 94.3025 23.4294V23.8436C94.3025 24.0303 94.3466 24.2451 94.4347 24.4855C94.5021 24.6849 94.6421 24.9764 94.8546 25.36C94.9376 25.5134 95.0231 25.6592 95.106 25.7922C95.2279 25.9942 95.3523 26.1732 95.4715 26.3317C95.5389 26.3982 95.627 26.4826 95.7411 26.5798C95.8499 26.6795 95.9614 26.7613 96.0754 26.8278C96.4538 27.0708 96.866 27.2677 97.3118 27.4211C97.7576 27.5745 98.3148 27.6973 98.9836 27.7842C99.94 27.9172 100.661 28.022 101.14 28.0987C101.62 28.1754 102.104 28.2675 102.594 28.3775C103.307 28.5539 103.836 28.6971 104.183 28.8071C104.528 28.917 104.766 29.027 104.901 29.1369C104.968 29.2034 105.012 29.252 105.033 29.2853C105.056 29.3185 105.072 29.3671 105.085 29.4336C105.095 29.5001 105.101 29.587 105.101 29.697C105.101 29.8504 105.09 29.9782 105.067 30.078C105.046 30.1752 105.002 30.303 104.935 30.4564C104.712 30.8963 104.243 31.3463 103.53 31.8092C103.172 32.0496 102.731 32.2976 102.208 32.5508C101.684 32.8039 101.233 32.9957 100.855 33.1287C100.409 33.3051 99.9193 33.4458 99.3853 33.5557C98.8488 33.6657 98.3356 33.745 97.8457 33.7884C97.5347 33.8089 97.2547 33.8217 97.0111 33.8217C96.0962 33.8217 95.4274 33.6785 95.005 33.3921C94.7147 33.2156 94.5462 32.9088 94.5021 32.4689C94.4581 32.2925 94.4347 32.1288 94.4347 31.9728C94.4347 31.9294 94.4399 31.8527 94.4529 31.7427C94.4632 31.6327 94.5151 31.4461 94.6032 31.1827C94.6913 30.9167 94.738 30.6994 94.738 30.5229V30.39C94.738 30.28 94.7147 30.17 94.6706 30.0601C94.4036 29.5103 94.0563 29.2367 93.6338 29.2367H93.5327C93.0221 29.3006 92.6644 29.6637 92.4623 30.3235C92.3741 30.5664 92.3301 30.8528 92.3301 31.1827C92.3301 31.4026 92.3638 31.7427 92.4312 32.203C92.496 32.6658 92.6541 33.1389 92.8977 33.6222C93.1647 34.1515 93.5457 34.6885 94.0356 35.2383C94.5254 35.7881 94.9583 36.1743 95.3393 36.3942C96.1402 36.834 96.9644 37.0872 97.812 37.1511C98.1256 37.1971 98.447 37.2176 98.7814 37.2176C100.21 37.2176 101.723 36.8545 103.33 36.1282C103.729 35.9748 104.154 35.7728 104.6 35.5196C105.046 35.2665 105.435 35.0184 105.769 34.778C105.948 34.6451 106.161 34.4584 106.404 34.2155C106.65 33.9751 106.879 33.7271 107.091 33.4739C107.301 33.2207 107.451 33.0187 107.542 32.8653C107.586 32.7988 107.635 32.7221 107.692 32.6326C107.747 32.5456 107.799 32.4587 107.843 32.3692C107.864 32.3027 107.887 32.249 107.91 32.203C107.954 32.0496 107.988 31.9064 108.009 31.7759C108.032 31.643 108.042 31.4358 108.042 31.1494C108.042 30.5766 107.965 30.0882 107.809 29.6816C107.654 29.275 107.374 28.7738 106.974 28.1806C106.461 27.4339 105.925 26.8713 105.367 26.4979C105.191 26.365 104.922 26.2167 104.567 26.053C104.209 25.8868 103.908 25.7615 103.665 25.672C103.216 25.5416 102.643 25.4035 101.941 25.2603C101.239 25.1196 100.544 25.002 99.8519 24.9151C99.406 24.8486 99.0872 24.7872 98.898 24.7335C98.7088 24.6798 98.5818 24.6082 98.5144 24.5187C98.4704 24.4522 98.447 24.3857 98.447 24.3218C98.447 24.1684 98.5585 23.9791 98.7814 23.7592C99.1158 23.4958 99.6471 23.1506 100.37 22.721C101.093 22.2914 101.791 21.936 102.459 21.6496C103.128 21.3862 103.735 21.1663 104.281 20.9898C104.828 20.8134 105.202 20.7264 105.401 20.7264C105.624 20.7264 105.78 20.7699 105.87 20.8568C105.958 20.9463 106.049 21.1432 106.137 21.4501C106.225 21.7595 106.332 22.0025 106.456 22.1763C106.578 22.3528 106.739 22.5062 106.941 22.6392C107.228 22.8361 107.508 22.9691 107.775 23.0355C107.864 23.056 107.944 23.0662 108.009 23.0662C108.211 23.0662 108.377 23.0228 108.512 22.9358C108.623 22.8693 108.706 22.7773 108.763 22.6545C108.817 22.5343 108.88 22.3426 108.947 22.0792C108.991 21.8132 109.074 21.5396 109.196 21.2532C109.32 20.9668 109.491 20.6165 109.714 20.1971C110.093 19.4939 110.284 18.9671 110.284 18.6142C110.284 18.5938 110.277 18.4889 110.266 18.3022Z" fill="#4A21EF"/>
<path d="M127.368 23.7591C127.233 23.6952 127.135 23.6492 127.068 23.6287C127.044 23.6057 127 23.5955 126.933 23.5955C126.889 23.5955 126.834 23.6057 126.767 23.6287C126.609 23.6287 126.466 23.6722 126.331 23.7591C126.199 23.8486 126.041 24.0021 125.862 24.222C125.639 24.5314 125.362 24.8766 125.028 25.2602C124.958 25.3395 124.893 25.4162 124.828 25.4878C124.584 25.7665 124.385 25.9941 124.224 26.168C124.136 26.2779 124.009 26.4211 123.841 26.5976C123.675 26.774 123.524 26.9607 123.39 27.1576C123.011 27.5744 122.407 28.2086 121.583 29.055C120.759 29.9014 119.979 30.6763 119.242 31.3795C118.33 32.2361 117.472 32.9675 116.669 33.5735C115.868 34.177 115.266 34.535 114.865 34.645C114.774 34.668 114.696 34.6782 114.629 34.6782C114.385 34.6782 114.206 34.5452 114.095 34.2819C114.007 34.085 113.96 33.7321 113.96 33.2258V32.699C113.96 32.3486 113.973 31.9727 113.994 31.5764C114.196 30.0165 114.642 28.2342 115.331 26.2345C115.422 26.035 115.51 25.8228 115.598 25.5901C115.689 25.3599 115.756 25.1681 115.8 25.0147C115.844 24.8383 115.907 24.6516 115.984 24.4521C116.062 24.2552 116.135 24.0788 116.202 23.9253C116.223 23.9023 116.236 23.8716 116.236 23.8256C116.301 23.6952 116.358 23.5571 116.402 23.4139C116.446 23.2707 116.49 23.1454 116.537 23.0355C116.581 22.9025 116.658 22.6928 116.77 22.4089C116.881 22.1225 117.003 21.8361 117.138 21.5497C117.317 21.1534 117.493 20.7468 117.672 20.33C117.783 20.087 117.874 19.8799 117.939 19.7035C118.094 19.3071 118.247 18.9568 118.392 18.6474C118.535 18.3405 118.753 17.9007 119.043 17.3279C119.131 17.131 119.242 16.8983 119.377 16.6349C120.336 14.6786 120.938 13.5688 121.184 13.3029C121.272 13.2159 121.378 13.1495 121.5 13.106C121.622 13.0625 121.84 13.0446 122.153 13.0574C122.464 13.0676 122.944 13.0958 123.589 13.1392C124.437 13.1827 125.082 13.2057 125.528 13.2057H126.565C126.699 13.2057 126.801 13.1827 126.865 13.1392C127.156 12.9193 127.296 12.638 127.285 12.2979C127.272 11.9578 127.122 11.6868 126.834 11.4899C126.655 11.4234 126.308 11.3364 125.797 11.2265C125.284 11.1165 124.727 11.027 124.126 10.9631C123.68 10.8966 123.361 10.8352 123.172 10.7815C122.983 10.7253 122.866 10.6537 122.822 10.5667C122.775 10.5233 122.755 10.4568 122.755 10.3673C122.755 10.3238 122.77 10.242 122.804 10.1218C122.837 9.99903 122.944 9.774 123.123 9.44413C123.19 9.33417 123.268 9.18074 123.356 8.98384C123.579 8.54401 123.851 8.00956 124.175 7.38305C124.499 6.75655 124.781 6.17351 125.028 5.63395C125.274 5.09695 125.406 4.74917 125.429 4.59574V4.46277C125.429 3.936 125.061 3.48593 124.325 3.11259C123.903 2.89267 123.501 2.78271 123.123 2.78271C122.9 2.78271 122.687 2.82619 122.488 2.91313C122.265 3.02309 121.897 3.42968 121.383 4.1329C120.87 4.83867 120.318 5.64162 119.73 6.54175C119.139 7.44443 118.62 8.26783 118.175 9.01708C117.972 9.32394 117.817 9.56687 117.705 9.74076C117.594 9.9172 117.506 10.0553 117.438 10.155C117.371 10.2522 117.317 10.3238 117.27 10.3673C117.226 10.4133 117.172 10.4465 117.104 10.467C117.037 10.5335 116.941 10.577 116.819 10.6C116.697 10.6204 116.508 10.6434 116.251 10.6639C115.995 10.6869 115.645 10.7099 115.199 10.7304C113.325 10.8199 111.677 10.958 110.251 11.1446C108.823 11.3313 107.809 11.5563 107.208 11.8197C106.583 12.0396 106.272 12.4795 106.272 13.1392C106.272 13.6225 106.394 13.9754 106.641 14.1953C106.729 14.2823 106.83 14.3385 106.941 14.359C107.006 14.382 107.073 14.3922 107.141 14.3922C107.231 14.3922 107.358 14.382 107.524 14.359C107.693 14.3385 107.978 14.2823 108.377 14.1953C110.049 13.8655 111.542 13.6123 112.859 13.4359C113.727 13.3259 114.362 13.2696 114.764 13.2696C114.987 13.2696 115.142 13.2824 115.233 13.3029C115.365 13.3694 115.432 13.4921 115.432 13.666C115.432 13.712 115.422 13.776 115.399 13.8655C115.399 13.9294 115.355 14.0752 115.266 14.2925C115.176 14.5124 115.064 14.7554 114.932 15.0187C114.328 16.2948 113.838 17.4225 113.46 18.3993C113.081 19.3787 112.656 20.5397 112.19 21.8796C112.011 22.4089 111.822 23.0457 111.622 23.7924C111.42 24.5416 111.275 25.1451 111.187 25.608C111.163 25.7614 111.13 25.9327 111.086 26.1194C111.042 26.3061 111.008 26.4646 110.985 26.5976C110.941 26.728 110.902 26.9326 110.868 27.2062C110.834 27.4824 110.798 27.7739 110.751 28.0807C110.64 28.9399 110.585 29.7531 110.585 30.5228C110.585 31.4025 110.663 32.2157 110.819 32.9624C111.153 34.8547 112.143 36.031 113.794 36.4913C113.95 36.5373 114.105 36.5808 114.263 36.6242C114.419 36.6677 114.541 36.7009 114.629 36.724C114.808 36.7674 114.987 36.7879 115.165 36.7879C115.878 36.7879 116.702 36.504 117.638 35.9312C118.04 35.6678 118.413 35.4045 118.758 35.1411C119.105 34.8751 119.546 34.512 120.08 34.0517C120.481 33.6784 120.888 33.2769 121.3 32.8473C121.713 32.4177 122.236 31.8372 122.871 31.0982C122.99 30.9601 123.117 30.8118 123.252 30.6558C123.838 29.9756 124.574 29.1164 125.463 28.0807C127.088 26.191 127.902 25.0352 127.902 24.6183C127.902 24.2885 127.723 24.0021 127.368 23.7591Z" fill="#4A21EF"/>
<path d="M140.374 21.4833C140.263 21.3734 140.139 21.2711 140.006 21.1713C139.872 21.0716 139.726 20.9898 139.571 20.9233C139.371 20.8133 139.221 20.7213 139.12 20.642C139.019 20.5653 138.941 20.4553 138.887 20.3121C138.83 20.1715 138.77 19.9567 138.703 19.6703C138.591 19.1205 138.355 18.6628 138 18.3022C137.643 17.9391 137.065 17.5709 136.261 17.1975C135.704 16.9316 135.17 16.7244 134.657 16.5684C134.255 16.4585 133.921 16.4048 133.654 16.4048H133.42C132.194 16.5582 131.075 17.1131 130.059 18.0695C129.045 19.0259 128.192 19.9669 127.503 20.8901C127.169 21.3529 126.782 21.9359 126.35 22.6392C125.914 23.3424 125.551 23.9919 125.261 24.5852C125.108 24.892 124.963 25.1938 124.828 25.4878C123.898 27.5054 123.374 29.2264 123.252 30.6559C123.234 30.8707 123.224 31.0778 123.224 31.2798C123.224 32.116 123.296 32.8959 123.439 33.6222C123.584 34.3484 124.004 34.9979 124.693 35.5682C125.162 35.9211 125.686 36.1742 126.264 36.3277C126.51 36.3941 126.767 36.4274 127.034 36.4274C127.345 36.4274 127.669 36.3711 128.003 36.2612C128.361 36.1282 128.794 35.8648 129.307 35.471C129.82 35.0746 130.31 34.6246 130.779 34.1183C131.469 33.3255 132.562 32.0188 134.055 30.193C135.058 28.94 135.647 28.3109 135.826 28.3109C135.96 28.3109 136.028 28.4541 136.028 28.7405V29.1369C136.028 29.3568 136.015 29.61 135.994 29.8964V30.2569C135.95 30.7863 135.927 31.2696 135.927 31.7094C135.927 32.5661 136.023 33.2974 136.212 33.9035C136.401 34.507 136.842 34.9979 137.531 35.3713C137.865 35.5682 138.166 35.6679 138.436 35.6679C138.635 35.6679 138.814 35.6142 138.97 35.5017C139.104 35.3713 139.169 35.2281 139.169 35.0746C139.169 35.0516 139.159 34.9903 139.136 34.8931C139.115 34.7934 138.99 34.5913 138.77 34.2819C138.568 34.0415 138.456 33.7321 138.436 33.3588V33.0954C138.436 32.7221 138.467 32.1723 138.534 31.446C138.713 30.0166 139.003 28.5973 139.405 27.1909C139.449 26.971 139.522 26.7076 139.62 26.3982C139.721 26.0913 139.872 25.6285 140.074 25.0148C140.185 24.7053 140.307 24.3422 140.439 23.9254C140.709 23.1787 140.836 22.6494 140.825 22.3425C140.812 22.0331 140.662 21.7493 140.374 21.4833ZM136.997 22.5727C136.997 22.6826 136.829 22.9256 136.494 23.2989C136.383 23.4523 136.217 23.662 135.994 23.9254C135.771 24.1888 135.559 24.4522 135.359 24.7156C134.511 25.7512 133.747 26.6897 133.068 27.5361C132.389 28.3825 131.958 28.894 131.782 29.0704C131.691 29.1804 131.559 29.3389 131.38 29.5486C131.202 29.7583 131.012 29.9603 130.813 30.1598C130.32 30.7326 129.742 31.331 129.074 31.9575C128.405 32.584 127.858 33.0391 127.436 33.3255C127.189 33.479 126.99 33.5557 126.834 33.5557C126.588 33.5557 126.466 33.369 126.466 32.9957C126.466 32.7553 126.521 32.4126 126.632 31.9728C127.055 30.2365 127.881 28.4004 129.107 26.4647C129.462 25.8944 129.781 25.4162 130.059 25.0301C130.338 24.6465 130.688 24.2016 131.113 23.6953C131.536 23.1659 131.899 22.7542 132.199 22.4576C132.5 22.161 132.907 21.8132 133.42 21.4194C133.799 21.11 134.094 20.8747 134.304 20.7085C134.517 20.5448 134.69 20.4349 134.823 20.3786C134.957 20.3249 135.079 20.2866 135.191 20.2635H135.292C135.426 20.2635 135.548 20.307 135.66 20.3965C135.771 20.4835 135.893 20.6701 136.028 20.9565C136.207 21.2634 136.406 21.5396 136.629 21.7799C136.873 22.0024 136.997 22.2095 136.997 22.409V22.5727Z" fill="#4A21EF"/>
<path d="M30.3445 9.84556C30.3186 9.85067 30.2927 9.85579 30.2616 9.86346C29.1341 10.1115 24.479 11.2136 19.4273 12.6661C17.3019 13.2773 15.1039 13.9498 13.0719 14.6479C11.2186 15.2821 9.50278 15.9367 8.09795 16.5837C3.50245 18.6985 2.7508 19.8032 3.52319 20.3632C4.57811 21.1278 8.46082 20.8848 9.34467 20.8183C9.42761 20.8107 9.48463 20.8925 9.45094 20.9692C9.45094 20.9692 9.16064 21.6366 9.06474 21.8591C8.74593 22.593 8.466 22.5981 8.43231 22.6058C6.57908 22.9868 1.85399 22.9024 1.23711 20.6112C1.05567 19.9438 1.25007 19.082 2.00691 17.9901C3.46876 15.8805 8.90663 13.6046 14.5985 11.7046C16.7369 10.9886 18.9115 10.3263 20.9254 9.74327C25.2876 8.4877 28.8878 7.61315 29.6991 7.41881C29.795 7.39579 29.8883 7.45461 29.9116 7.54922L30.4767 9.63331C30.5 9.72793 30.4404 9.82254 30.3445 9.84556Z" fill="#4A21EF"/>
<path d="M30.6843 7.0429L31.2934 9.36481C31.309 9.42362 31.3712 9.45942 31.4308 9.44408L42.7109 6.56983C42.8094 6.54426 42.8509 6.4343 42.799 6.34991C42.5398 5.94077 41.669 4.9895 39.3932 5.51628C38.7245 5.67226 37.6385 5.60834 36.9853 5.39865C35.692 4.98439 33.8802 4.40135 33.4525 4.26327C33.3955 4.24537 33.3307 4.25815 33.2866 4.29907L32.2862 5.18385C32.2032 5.258 32.211 5.38586 32.3017 5.44979L34.3001 6.82299C34.4064 6.89715 34.396 7.05569 34.2794 7.11451L32.6309 7.55434C32.5609 7.58758 32.478 7.57224 32.4261 7.51598L31.8326 6.8639C31.5708 6.57494 31.4386 6.69513 31.0576 6.7923L30.7491 6.90993C30.6973 6.93039 30.6662 6.98665 30.6818 7.04035L30.6843 7.0429Z" fill="#4A21EF"/>
</svg>
